<svg width="370" height="222" viewBox="0 0 370 222" fill="none" xmlns="http://www.w3.org/2000/svg">
<path d="M65.8585 207.052C62.5526 209.273 60.4646 213.971 62.2916 217.644C64.4665 222 71.1653 223.281 75.3412 220.292C79.691 217.217 80.3 210.212 76.6461 206.967C73.7752 204.489 68.9034 205.002 65.8585 207.052Z" fill="white"/>
<path d="M46.8917 207.052C43.5858 209.273 41.4978 213.971 43.3248 217.644C45.4997 222 52.1985 223.281 56.3744 220.292C60.7243 217.217 61.3332 210.212 57.6793 206.967C54.8084 204.489 49.9366 205.002 46.8917 207.052Z" fill="white"/>
<path d="M362.083 156.485C359.995 154.606 357.733 153.068 355.211 151.958V151.104C358.951 151.018 361.909 150.164 364.084 148.541C366.346 146.833 367.477 144.441 367.477 141.451C367.477 137.01 364.258 134.789 357.82 134.789H355.211V73.4591C355.211 69.4445 352.949 68.0778 348.773 68.0778C344.423 68.0778 334.331 70.1278 334.331 80.6342V104.466C329.72 107.37 325.37 109.249 322.761 109.249C319.368 109.249 317.628 107.882 317.628 102.33V73.4591C317.628 66.5403 310.407 68.5049 302.751 67.907C299.358 67.6507 296.574 70.0424 296.574 73.3737V102.245C296.574 116.424 304.317 123.855 318.585 123.855C324.065 123.855 328.85 122.489 334.331 119.072V134.789H317.019C306.492 134.789 298.575 135.985 293.181 138.462C288.484 140.597 284.743 143.843 281.872 148.029C279.001 152.299 277.609 156.912 277.609 161.781C277.609 168.87 280.219 174.764 285.526 179.548C288.223 181.939 291.18 183.733 294.399 184.929H293.007C291.963 184.929 291.006 185.014 290.136 185.1H276.913C276.826 185.1 276.826 185.1 276.739 185.1V185.014C270.997 185.014 232.718 185.014 226.976 185.014C225.497 178.352 222.539 172.458 218.103 167.162C211.491 159.304 203.574 155.46 194.439 155.46C187.828 155.46 182.434 157.339 178.432 161.183C177.91 161.61 176.605 162.977 175.387 164.941C171.211 171.518 170.08 182.623 176.17 191.25C181.738 199.108 190.524 200.731 192.438 201.073H210.012C209.664 202.012 208.968 203.465 207.489 204.746C204.531 207.394 200.79 207.223 199.92 207.223H178.606C175.3 207.137 172.342 208.504 171.037 210.896C170.428 212.092 169.906 215.338 170.689 217.217C171.124 218.413 171.907 219.096 172.255 219.438C174.865 221.915 178.606 221.915 179.824 221.915H203.661C206.01 222 215.145 221.915 221.67 215.338C225.671 211.323 227.15 205.856 227.672 200.987H273.346H276.652H286.309C287.266 201.158 288.397 201.244 289.614 201.244H330.59C341.117 201.244 349.034 200.048 354.428 197.571C359.125 195.435 362.866 192.189 365.737 188.004C368.608 183.733 370 179.121 370 174.252C370 167.162 367.39 161.268 362.083 156.485ZM197.223 185.185C190.524 185.185 187.306 183.221 187.48 179.291C187.654 174.85 189.828 172.714 193.917 172.714C199.659 172.714 204.183 176.9 207.489 185.185H197.223ZM304.752 170.237C302.055 170.237 299.88 169.468 298.314 167.931C296.748 166.393 295.878 164.343 295.878 161.781C295.878 154.606 301.707 151.018 313.365 151.018H323.978C320.499 158.108 317.367 163.147 314.496 165.966C311.799 168.87 308.493 170.237 304.752 170.237ZM334.157 185.014H323.456C326.936 177.925 330.068 172.885 332.939 170.066C335.81 167.248 339.116 165.795 342.77 165.795C345.467 165.795 347.555 166.564 349.208 168.102C350.774 169.639 351.557 171.689 351.557 174.252C351.644 181.427 345.815 185.014 334.157 185.014Z" fill="white"/>
<path d="M152.854 154.776C148.157 150.591 142.241 148.455 135.02 148.455C125.711 148.455 117.534 151.616 110.748 158.022C103.875 164.429 100.482 171.945 100.482 180.658C100.482 182.452 100.656 184.16 101.004 185.697H95.7842C90.9993 185.697 86.2144 185.612 81.4296 185.612H69.424C68.989 185.612 68.641 185.612 68.293 185.697C68.032 185.356 67.684 185.1 67.423 184.758L57.2443 174.593C55.0694 172.458 52.6335 171.177 49.7625 170.835C46.9786 170.493 44.5427 171.177 42.6287 172.799C41.3238 173.91 40.0188 175.704 38.7139 178.266L29.6661 195.862C28.6222 197.741 27.7522 199.023 26.9692 199.706C24.8813 201.5 22.5323 201.073 20.0094 198.51C16.5295 195.093 16.8775 186.979 20.8794 179.206C24.6203 171.177 28.3612 163.233 32.1021 155.203C32.3631 154.264 32.711 152.128 31.7541 149.737C31.1451 148.199 30.1881 147.174 29.6661 146.662C28.2742 145.295 26.6212 144.526 24.7073 144.355C22.7933 144.185 21.1404 144.697 19.7484 145.808C18.7045 146.662 17.7475 147.943 16.8775 149.651L15.9205 151.445C11.9187 159.047 4.26289 177.07 0.956992 191.079C0.522005 192.958 -0.173975 196.289 0.522005 200.304C2.34895 211.066 11.9187 216.704 12.3537 216.96C14.4416 218.156 22.0104 222.512 30.8841 219.352C38.6269 216.619 42.0198 209.956 42.6287 208.504L51.7635 190.993L57.5923 196.802C59.9412 199.108 62.1162 200.389 64.2041 200.646C64.9001 201.073 65.7701 201.329 66.814 201.329H68.032L114.837 201.585C115.707 201.585 116.577 201.414 117.273 201.243C119.969 201.671 123.362 201.841 127.277 201.841C132.236 201.841 136.151 201.5 138.935 200.816C141.719 200.133 144.416 198.766 147.026 196.973C150.941 194.068 154.072 190.225 156.508 185.356C158.944 180.487 160.162 175.618 160.162 170.749C159.901 164.429 157.552 159.047 152.854 154.776ZM137.021 183.989C134.933 186.125 132.062 187.235 128.234 187.235C121.709 187.235 118.49 184.587 118.49 179.291C118.49 175.277 119.969 171.604 123.101 168.187C126.146 164.856 129.539 163.147 133.193 163.147C135.803 163.147 137.978 163.916 139.631 165.539C141.284 167.162 142.067 169.212 142.067 171.86C142.154 176.387 140.414 180.402 137.021 183.989Z" fill="white"/>
<path d="M25.0553 137.949C30.4491 137.949 34.973 138.12 34.973 132.91V103.953C39.1488 101.049 43.2377 99.4259 45.6736 99.4259C48.9795 99.4259 50.6325 100.622 50.6325 105.832V132.91C50.6325 138.12 54.9824 137.949 60.3762 137.949C65.7701 137.949 70.1199 138.12 70.1199 132.91V105.832C70.1199 92.6779 63.0731 85.5883 49.5015 85.5883C44.3687 85.5883 40.0188 86.8695 34.886 90.1154V71.1527C34.886 67.5652 32.624 66.1985 28.8831 66.1985C24.7073 66.1985 15.2245 68.0777 15.2245 77.9007V132.824C15.2245 138.035 19.6614 137.949 25.0553 137.949Z" fill="white"/>
<path d="M104.834 138.376C119.972 138.376 132.151 129.835 132.151 112.068C132.151 94.1301 119.972 85.5884 104.834 85.5884C89.6964 85.5884 77.5168 94.1301 77.5168 112.068C77.4298 129.835 89.6094 138.376 104.834 138.376ZM104.834 99.426C109.01 99.426 112.49 101.903 112.49 111.982C112.49 122.147 109.01 124.539 104.834 124.539C100.658 124.539 97.1782 122.062 97.1782 111.982C97.1782 101.903 100.571 99.426 104.834 99.426Z" fill="white"/>
<path d="M171.992 105.832V132.91C171.992 138.12 176.342 137.949 181.736 137.949C187.129 137.949 191.479 138.12 191.479 132.91V105.832V103.355C194.785 100.878 197.917 99.426 200.005 99.426C202.528 99.426 204.355 100.622 204.355 105.832V132.91C204.355 138.12 208.705 137.949 214.099 137.949C219.492 137.949 223.842 138.12 223.842 132.91V105.832C223.842 92.678 217.491 85.5884 204.79 85.5884C199.222 85.5884 194.002 87.4676 187.825 92.0801C184.78 87.8947 179.561 85.5884 172.514 85.5884C167.12 85.5884 162.161 87.2967 156.245 91.4822C154.418 88.4072 149.894 86.2717 144.936 86.2717C141.195 86.2717 139.368 86.9551 139.368 91.3114V132.824C139.368 138.035 143.718 137.864 149.112 137.864C154.505 137.864 159.029 138.035 159.029 132.824V103.184C162.335 100.707 165.38 99.426 167.555 99.426C170.339 99.426 171.992 100.536 171.992 105.832Z" fill="white"/>
<path d="M260.646 138.376C267.257 138.376 273.608 137.181 277.61 135.728C280.655 134.703 280.916 131.543 280.307 129.835C279.872 128.212 279.524 127.358 278.654 125.222C277.871 123.087 276.392 122.745 273.695 123.343C270.215 124.197 264.996 125.051 260.646 124.624C257.166 124.197 253.251 122.574 251.946 118.132C251.946 118.132 267.083 117.962 273.695 117.962C280.307 117.962 283.439 112.922 283.004 107.797C281.786 93.6176 272.825 85.5029 258.819 85.5029C243.681 85.5029 231.502 94.0447 231.502 111.982C231.502 129.835 245.16 138.376 260.646 138.376ZM258.645 99.426C260.907 99.426 262.821 101.049 262.995 105.064L251.685 105.747C252.555 101.134 255.948 99.426 258.645 99.426Z" fill="white"/>
<path d="M56.0264 74.6549C54.4604 74.6549 52.9815 73.8861 52.1985 72.5194C50.9805 70.4694 51.6765 67.7361 53.7645 66.5402L168.253 0L277.435 63.636C279.523 64.8319 280.219 67.5652 279.001 69.6152C277.783 71.6653 274.999 72.3486 272.911 71.1528L168.253 10.1647L58.2883 74.057C57.5923 74.484 56.8094 74.6549 56.0264 74.6549Z" fill="#F3AE1C"/>
<path d="M246.548 48.6877L226.626 44.3314V15.6311H246.548V48.6877Z" fill="#F3AE1C"/>
</svg>
